<?xml version="1.0" encoding="UTF-8"?>
<svg id="Layer_1" xmlns="http://www.w3.org/2000/svg" version="1.1" xmlns:xlink="http://www.w3.org/1999/xlink" viewBox="0 0 42 42">
  <!-- Generator: Adobe Illustrator 29.2.1, SVG Export Plug-In . SVG Version: 2.1.0 Build 116)  -->
  <defs>
    <style>
      .st0 {
        fill: url(#New_Gradient_Swatch_copy);
      }

      .st1 {
        fill: url(#linear-gradient4);
      }

      .st1, .st2, .st3, .st4, .st5, .st6, .st7 {
        opacity: 0;
      }

      .st2 {
        fill: url(#linear-gradient5);
      }

      .st3 {
        fill: url(#linear-gradient2);
      }

      .st4 {
        fill: url(#linear-gradient1);
      }

      .st5 {
        fill: url(#linear-gradient3);
      }

      .st6 {
        fill: url(#linear-gradient);
      }

      .st7 {
        fill: url(#linear-gradient6);
      }
    </style>
    <linearGradient id="New_Gradient_Swatch_copy" data-name="New Gradient Swatch copy" x1="0" y1="21.3" x2="42" y2="21.3" gradientUnits="userSpaceOnUse">
      <stop offset=".3" stop-color="#ffdb6e"/>
      <stop offset="1" stop-color="#ffbc5e"/>
    </linearGradient>
    <linearGradient id="linear-gradient" x1="6.3" y1="16.2" x2="35.9" y2="16.2" gradientUnits="userSpaceOnUse">
      <stop offset="1" stop-color="#ffdb6e"/>
      <stop offset="1" stop-color="#ffbc5e"/>
    </linearGradient>
    <linearGradient id="linear-gradient1" x1="15.9" y1="3.9" x2="26" y2="3.9" xlink:href="#linear-gradient"/>
    <linearGradient id="linear-gradient2" x1="30.1" y1="28.9" x2="36.5" y2="28.9" xlink:href="#linear-gradient"/>
    <linearGradient id="linear-gradient3" x1="5.5" y1="28.9" x2="11.9" y2="28.9" xlink:href="#linear-gradient"/>
    <linearGradient id="linear-gradient4" x1="17.4" y1="33.5" x2="24.8" y2="33.5" xlink:href="#linear-gradient"/>
    <linearGradient id="linear-gradient5" x1="34.1" y1="33.4" x2="35.8" y2="33.4" xlink:href="#linear-gradient"/>
    <linearGradient id="linear-gradient6" x1="5.9" y1="33.4" x2="7.6" y2="33.4" xlink:href="#linear-gradient"/>
  </defs>
  <path class="st0" d="M24.7.6l7.9.8c2.4.8,4.8,2.4,5,5.1.9.1,2.2,0,2.6,1s.1.8.2.9.5,0,.8.2.6.8.8,1.1v5.2c-.6,1.3-1.8,1.4-3.2,1.3v-7.7c0-.3-.8-.6-1.1-.5v26.9c0,1.8-2.5,1.6-3.7,1.6v3.6c0,.8-1.1,1.7-1.9,2h-2.4c-.5-.2-1.7-1.1-1.7-1.6v-4h-14.1v3.8c0,.5-1.2,1.5-1.7,1.8h-2.6c-.5-.2-1.7-1.2-1.7-1.8v-3.8c-1,0-2.6.3-3.2-.6s-.5-1-.5-1V8c-.3-.1-1.1.2-1.1.5v7.7c-1.4,0-2.5,0-3.2-1.3v-5.2c.3-.3.4-.9.8-1.1s.8-.2.8-.2,0-.6.2-.9c.4-.9,1.8-.9,2.6-1C5.4.5,12.6.9,17.2.8l.4-.2h7.1ZM16.3,2.6c-.5.2-.3,1.9-.2,2.4h.2c0,.1,9.6,0,9.6,0v-.2c.1-.5.4-2.1-.1-2.3h-9.4ZM35.2,7.1H6.6l-.3.3v15.4c0,.5,4,1.3,4.6,1.5,6.6,1.4,13.5,1.4,20.1,0,.9-.2,3.7-.8,4.3-1.2s.3-.7.3-1c.3-3.4.3-10.6,0-14s0-.9-.5-1ZM6.1,26.8c-.7.1-.7,3.1-.1,3.6s2.4.4,3.1.5,1.6,0,2.3.1.7-.4.3-.8-2.6-1.8-3.4-2.2-1.9-1.2-2.2-1.1ZM36.2,26.8c-.3-.2-3,1.5-3.5,1.8s-1.9,1.1-2.3,1.6-.5.9.3.8,4.8-.2,5.3-.5c.9-.5.5-2.8.3-3.7ZM6.6,32.5c-1.1.1-.9,1.9.1,1.8s.9-1.9-.1-1.8ZM17.7,32.5c-.4,0-.5,1.7,0,1.9h6.7c.4-.4.4-1.5,0-1.9h-6.7ZM34.9,32.5c-1.2.2-.9,1.9.1,1.8s.9-1.9-.1-1.8Z"/>
  <path class="st6" d="M35.2,7.1c.4.1.4.7.5,1,.3,3.4.3,10.5,0,14,0,.3,0,.8-.3,1-.6.4-3.4,1-4.3,1.2-6.6,1.4-13.5,1.4-20.1,0s-4.6-1-4.6-1.5V7.3l.3-.3h28.6Z"/>
  <path class="st4" d="M16.3,2.6h9.4c.5.2.3,1.8.3,2.3v.2c-.1,0-9.7,0-9.7,0h-.2c0-.6-.3-2.4.2-2.5Z"/>
  <path class="st3" d="M36.2,26.8c.2.9.6,3.2-.3,3.7s-4.4.5-5.3.5-.7-.4-.3-.8,1.7-1.2,2.3-1.6,3.2-2,3.5-1.8Z"/>
  <path class="st5" d="M6.1,26.8c.2,0,1.8.9,2.2,1.1.8.4,2.8,1.7,3.4,2.2s.5.9-.3.8-1.6,0-2.3-.1-2.7-.2-3.1-.5c-.6-.5-.6-3.5.1-3.6Z"/>
  <path class="st1" d="M17.7,32.5h6.7c.4.4.4,1.5,0,1.9h-6.7c-.5-.2-.4-1.9,0-1.9Z"/>
  <path class="st2" d="M34.9,32.5c1.1-.2,1.4,1.7.1,1.8s-1.3-1.6-.1-1.8Z"/>
  <path class="st7" d="M6.6,32.5c1.1-.1,1.4,1.7.1,1.8s-1.2-1.6-.1-1.8Z"/>
</svg>